<?xml version="1.0" standalone="no"?>
<!DOCTYPE svg PUBLIC "-//W3C//DTD SVG 20010904//EN"
 "http://www.w3.org/TR/2001/REC-SVG-20010904/DTD/svg10.dtd">
<svg version="1.0" xmlns="http://www.w3.org/2000/svg"
 width="58.000000pt" height="76.000000pt" viewBox="0 0 58.000000 76.000000"
 preserveAspectRatio="xMidYMid meet">
<metadata>
Created by potrace 1.16, written by Peter Selinger 2001-2019
</metadata>
<g transform="translate(0.000000,76.000000) scale(0.100000,-0.100000)"
fill="#000000" stroke="none">
<path d="M297 623 c-4 -3 -2 -12 4 -19 15 -18 2 -22 -88 -26 -40 -2 -75 -7
-79 -11 -4 -4 14 -29 40 -56 l47 -48 -35 -6 c-74 -12 -140 -93 -117 -143 12
-27 52 -34 213 -34 l126 0 57 -55 c32 -30 62 -55 66 -55 5 0 18 15 29 33 16
25 20 50 20 121 0 77 -3 95 -27 138 -29 54 -92 104 -143 114 -16 4 -30 13 -30
20 0 8 -3 13 -7 13 -5 -1 -17 -1 -28 1 l-20 1 20 9 c17 7 15 9 -11 9 -17 1
-34 -2 -37 -6z"/>
</g>
</svg>
